<svg width="46" height="46" viewBox="0 0 46 46" fill="none" xmlns="http://www.w3.org/2000/svg">
<path d="M22.9999 3.83301C12.4391 3.83301 3.83325 12.4388 3.83325 22.9997C3.83325 33.5605 12.4391 42.1663 22.9999 42.1663C25.6449 42.1663 27.7916 40.0197 27.7916 37.3747C27.7916 36.2055 27.3508 35.0747 26.5649 34.1738C26.4116 33.9822 26.3158 33.7713 26.3158 33.5413C26.3158 33.0047 26.7374 32.583 27.2741 32.583H30.6666C37.0108 32.583 42.1666 27.4272 42.1666 21.083C42.1666 11.5763 33.5608 3.83301 22.9999 3.83301ZM33.5416 24.9163C31.9508 24.9163 30.6666 23.6322 30.6666 22.0413C30.6666 20.4505 31.9508 19.1663 33.5416 19.1663C35.1324 19.1663 36.4166 20.4505 36.4166 22.0413C36.4166 23.6322 35.1324 24.9163 33.5416 24.9163ZM27.7916 17.2497C26.2008 17.2497 24.9166 15.9655 24.9166 14.3747C24.9166 12.7838 26.2008 11.4997 27.7916 11.4997C29.3824 11.4997 30.6666 12.7838 30.6666 14.3747C30.6666 15.9655 29.3824 17.2497 27.7916 17.2497ZM9.58325 22.0413C9.58325 20.4505 10.8674 19.1663 12.4583 19.1663C14.0491 19.1663 15.3333 20.4505 15.3333 22.0413C15.3333 23.6322 14.0491 24.9163 12.4583 24.9163C10.8674 24.9163 9.58325 23.6322 9.58325 22.0413ZM21.0833 14.3747C21.0833 15.9655 19.7991 17.2497 18.2083 17.2497C16.6174 17.2497 15.3333 15.9655 15.3333 14.3747C15.3333 12.7838 16.6174 11.4997 18.2083 11.4997C19.7991 11.4997 21.0833 12.7838 21.0833 14.3747Z" fill="white"/>
</svg>
