<svg width="55" height="38" viewBox="0 0 55 38" fill="none" xmlns="http://www.w3.org/2000/svg">
<g clip-path="url(#clip0_180_586)">
<path d="M5.36493 36.1488H41.5416C43.2686 36.1488 44.5945 35.6913 45.5192 34.7764C46.444 33.8616 46.9064 32.5266 46.9064 30.7717V15.5179L43.9485 18.5239V30.921C43.9485 31.6926 43.7402 32.2901 43.3236 32.7134C42.9072 33.1365 42.3193 33.3481 41.5598 33.3481H5.34657C4.58715 33.3481 3.99921 33.1365 3.58276 32.7134C3.1663 32.2901 2.95807 31.6926 2.95807 30.921V15.2192C2.95807 13.6011 3.75424 12.7921 5.34657 12.7921H35.2948L38.0691 9.99151H5.36493C3.63787 9.99151 2.31195 10.4458 1.38717 11.3544C0.462389 12.2631 0 13.6011 0 15.3686V30.7717C0 32.5266 0.462389 33.8616 1.38717 34.7764C2.31195 35.6913 3.63787 36.1488 5.36493 36.1488ZM9.75611 25.7305C10.4788 25.7305 11.0973 25.4692 11.6118 24.9465C12.1262 24.4237 12.3835 23.7951 12.3835 23.0607C12.3835 22.3264 12.1262 21.6978 11.6118 21.175C11.0973 20.6523 10.4788 20.391 9.75611 20.391C9.03344 20.391 8.41488 20.6523 7.90043 21.175C7.38598 21.6978 7.12875 22.3264 7.12875 23.0607C7.12875 23.7951 7.38598 24.4237 7.90043 24.9465C8.41488 25.4692 9.03344 25.7305 9.75611 25.7305ZM17.6749 25.7305C18.3976 25.7305 19.0162 25.4692 19.5307 24.9465C20.045 24.4237 20.3022 23.7951 20.3022 23.0607C20.3022 22.3264 20.045 21.6978 19.5307 21.175C19.0162 20.6523 18.3976 20.391 17.6749 20.391C16.9522 20.391 16.3337 20.6523 15.8192 21.175C15.3048 21.6978 15.0476 22.3264 15.0476 23.0607C15.0476 23.7951 15.3048 24.4237 15.8192 24.9465C16.3337 25.4692 16.9522 25.7305 17.6749 25.7305ZM25.5937 25.7305C26.3164 25.7305 26.9349 25.4692 27.4493 24.9465C27.9638 24.4237 28.2211 23.7951 28.2211 23.0607C28.2211 22.3264 27.9638 21.6978 27.4493 21.175C26.9349 20.6523 26.3164 20.391 25.5937 20.391C24.871 20.391 24.2524 20.6523 23.738 21.175C23.2235 21.6978 22.9663 22.3264 22.9663 23.0607C22.9663 23.7951 23.2235 24.4237 23.738 24.9465C24.2524 25.4692 24.871 25.7305 25.5937 25.7305ZM31.8405 24.0317L35.5886 22.3514L51.7753 5.92138L49.1848 3.32619L33.0348 19.756L31.271 23.4342C31.1852 23.596 31.2158 23.7578 31.3628 23.9196C31.5098 24.0814 31.669 24.1187 31.8405 24.0317ZM53.135 4.52109L54.5129 3.10216C54.8314 2.76608 54.9937 2.38956 54.9998 1.9726C55.006 1.55563 54.8498 1.18533 54.5313 0.861708L54.0903 0.41362C53.7963 0.114894 53.4442 -0.0220214 53.0339 0.00287235C52.6235 0.0277662 52.2653 0.195799 51.9591 0.506971L50.5812 1.88858L53.135 4.52109Z" fill="white"/>
</g>
<defs>
<clipPath id="clip0_180_586">
<rect width="55" height="38" fill="white"/>
</clipPath>
</defs>
</svg>
